<svg width="298" height="122" viewBox="0 0 298 122" fill="none" xmlns="http://www.w3.org/2000/svg">
<rect x="0.5" y="0.5" width="297" height="120.791" fill="white" stroke="#ECECEC"/>
<g clip-path="url(#clip0)">
<path d="M89.1715 56.7606H70.5274L69.8615 57.2966V73.9796H74.9886V67.6816L75.4546 67.2126H89.1713C92.6336 67.2126 94.2318 66.2747 94.2318 63.8628V60.0437C94.2319 57.6986 92.6338 56.7606 89.1715 56.7606ZM89.1715 62.9245C89.1715 64.0634 88.4389 64.2644 86.7743 64.2644H75.5214L74.9886 63.7955V60.2446L75.4546 59.7756H86.7741C88.3723 59.7756 89.1712 59.9766 89.1712 61.1155L89.1715 62.9245ZM103.687 59.9095L108.148 66.4755L107.882 67.0785H98.0273L95.497 70.2276H110.146L111.211 70.8305L113.475 73.9795H119.401L106.417 56.5596L103.687 59.9095ZM162.482 70.6295V65.9396L163.015 65.4705H172.936V62.5225H157.222V73.9795H180.394V71.0315H163.081L162.482 70.6295ZM157.222 56.7606H180.593V59.9766H157.222V56.7606ZM131.187 59.8425H150.031C149.764 57.4306 148.233 56.7606 144.504 56.7606H130.987C126.726 56.7606 125.394 57.5646 125.394 60.8475V69.9595C125.394 73.1756 126.726 74.0466 130.987 74.0466H144.504C148.299 74.0466 149.764 73.3095 149.897 70.8305H131.187L130.654 70.2944V60.2446L131.187 59.8425ZM57.2103 63.4606H43.5603L43.1608 62.9917V60.0437L43.5603 59.7087H62.0045L62.2708 59.1057C61.6715 57.4976 60.0069 56.6937 57.0106 56.6937H44.1596C39.8981 56.6937 38.5664 57.4977 38.5664 60.7805V62.7236C38.5664 65.9397 39.8981 66.8107 44.1596 66.8107H57.8096L58.2091 67.2126V70.2945L57.8762 70.7636H38.1669C38.1669 70.7636 37.7009 71.0315 37.7009 71.0986C38.0338 73.3766 39.5653 73.9795 43.2274 73.9795H57.2104C61.4718 73.9795 62.8702 73.1756 62.8702 69.8926V67.5475C62.8701 64.3316 61.4718 63.4606 57.2103 63.4606ZM195.309 56.6936H187.585L187.185 57.4976L195.708 63.7956C197.306 62.8576 199.104 61.9196 200.968 60.9816L195.309 56.6936ZM202.234 68.4856L209.758 73.9795H217.482L217.815 73.2425L206.628 65.0015C205.163 66.1404 203.632 67.2795 202.234 68.4856Z" fill="#005288"/>
<path d="M194.177 73.9795H187.185L186.586 73.0414C191.314 68.4185 212.488 48.7206 258.498 46.6436C258.498 46.6436 219.945 47.9835 194.177 73.9795Z" fill="#A7A9AC"/>
</g>
<defs>
<clipPath id="clip0">
<rect width="221.051" height="27.403" fill="white" transform="translate(37.574 46.6436)"/>
</clipPath>
</defs>
</svg>
